<svg height="140" viewBox="0 0 740 1008" fill="none" xmlns="http://www.w3.org/2000/svg">
<path d="M168.601 973H160.645V901.09H166.306L167.53 911.035C170.896 907.669 174.517 905.017 178.393 903.079C182.269 901.039 186.91 900.019 192.316 900.019C197.416 900.019 201.598 901.09 204.862 903.232C208.126 905.272 210.574 908.128 212.206 911.8C215.776 908.026 219.703 905.119 223.987 903.079C228.271 901.039 233.014 900.019 238.216 900.019C245.56 900.019 251.068 902.11 254.74 906.292C258.514 910.372 260.401 916.084 260.401 923.428V973H252.445V925.876C252.445 919.756 251.119 915.013 248.467 911.647C245.917 908.281 241.276 906.598 234.544 906.598C231.076 906.598 227.455 907.567 223.681 909.505C220.009 911.443 216.898 914.044 214.348 917.308C214.45 918.226 214.501 919.246 214.501 920.368C214.501 921.49 214.501 922.51 214.501 923.428V973H206.545V925.876C206.545 919.756 205.321 915.013 202.873 911.647C200.425 908.281 195.886 906.598 189.256 906.598C185.482 906.598 181.759 907.618 178.087 909.658C174.517 911.596 171.355 914.299 168.601 917.767V973ZM342.517 936.28C342.517 942.298 341.701 947.704 340.069 952.498C338.437 957.19 336.142 961.168 333.184 964.432C330.328 967.594 326.962 970.042 323.086 971.776C319.21 973.408 314.977 974.224 310.387 974.224C305.899 974.224 301.666 973.459 297.688 971.929C293.812 970.297 290.446 967.951 287.59 964.891C284.734 961.831 282.49 958.057 280.858 953.569C279.226 948.979 278.41 943.726 278.41 937.81C278.41 931.792 279.226 926.437 280.858 921.745C282.592 917.053 284.938 913.126 287.896 909.964C290.854 906.7 294.322 904.252 298.3 902.62C302.278 900.988 306.511 900.172 310.999 900.172C315.487 900.172 319.669 900.937 323.545 902.467C327.421 903.997 330.736 906.292 333.49 909.352C336.346 912.412 338.539 916.186 340.069 920.674C341.701 925.162 342.517 930.364 342.517 936.28ZM334.255 937.045C334.255 931.741 333.592 927.202 332.266 923.428C330.94 919.552 329.155 916.39 326.911 913.942C324.769 911.392 322.27 909.556 319.414 908.434C316.558 907.21 313.6 906.598 310.54 906.598C307.48 906.598 304.522 907.21 301.666 908.434C298.81 909.556 296.26 911.392 294.016 913.942C291.772 916.39 289.987 919.552 288.661 923.428C287.335 927.202 286.672 931.741 286.672 937.045C286.672 942.655 287.335 947.398 288.661 951.274C290.089 955.15 291.925 958.312 294.169 960.76C296.413 963.208 298.963 964.993 301.819 966.115C304.777 967.237 307.786 967.798 310.846 967.798C313.906 967.798 316.813 967.288 319.567 966.268C322.423 965.146 324.922 963.361 327.064 960.913C329.308 958.465 331.042 955.303 332.266 951.427C333.592 947.449 334.255 942.655 334.255 937.045ZM407.532 864.37H415.488V973H409.062L407.991 966.268H407.685C405.543 968.614 402.84 970.552 399.576 972.082C396.312 973.51 392.079 974.224 386.877 974.224C383.001 974.224 379.176 973.51 375.402 972.082C371.73 970.552 368.364 968.257 365.304 965.197C362.346 962.137 359.949 958.312 358.113 953.722C356.277 949.03 355.359 943.522 355.359 937.198C355.359 931.588 356.073 926.488 357.501 921.898C359.031 917.308 361.224 913.432 364.08 910.27C366.936 907.006 370.353 904.507 374.331 902.773C378.411 901.039 383.001 900.172 388.101 900.172C395.853 900.172 402.33 902.467 407.532 907.057V864.37ZM407.532 915.166C405.492 912.514 402.789 910.423 399.423 908.893C396.057 907.363 392.742 906.598 389.478 906.598C386.112 906.598 382.848 907.159 379.686 908.281C376.626 909.301 373.872 910.984 371.424 913.33C369.078 915.676 367.191 918.787 365.763 922.663C364.335 926.539 363.621 931.231 363.621 936.739C363.621 942.451 364.335 947.296 365.763 951.274C367.191 955.15 369.078 958.312 371.424 960.76C373.872 963.208 376.626 964.993 379.686 966.115C382.746 967.237 385.908 967.798 389.172 967.798C393.558 967.798 397.281 966.982 400.341 965.35C403.503 963.718 405.9 961.678 407.532 959.23V915.166ZM491.824 937.045H440.569V939.187C440.569 948.163 442.966 955.201 447.76 960.301C452.656 965.299 459.286 967.798 467.65 967.798C474.28 967.798 480.502 966.676 486.316 964.432L488.152 970.552C485.5 971.674 482.287 972.541 478.513 973.153C474.841 973.867 471.067 974.224 467.191 974.224C462.397 974.224 457.858 973.51 453.574 972.082C449.392 970.654 445.72 968.461 442.558 965.503C439.396 962.443 436.897 958.618 435.061 954.028C433.225 949.336 432.307 943.726 432.307 937.198C432.307 931.588 433.072 926.488 434.602 921.898C436.132 917.308 438.325 913.432 441.181 910.27C444.037 907.006 447.403 904.507 451.279 902.773C455.155 901.039 459.49 900.172 464.284 900.172C468.364 900.172 472.087 900.937 475.453 902.467C478.921 903.895 481.828 905.986 484.174 908.74C486.622 911.494 488.509 914.809 489.835 918.685C491.161 922.561 491.824 926.845 491.824 931.537V937.045ZM483.562 930.619C483.562 927.661 483.205 924.754 482.491 921.898C481.777 918.94 480.604 916.339 478.972 914.095C477.442 911.851 475.402 910.066 472.852 908.74C470.404 907.312 467.395 906.598 463.825 906.598C457.603 906.598 452.401 908.689 448.219 912.871C444.139 917.053 441.691 922.969 440.875 930.619H483.562ZM510.437 973V864.37H518.393V973H510.437ZM579.121 910.117C574.021 907.771 568.462 906.598 562.444 906.598C556.936 906.598 552.805 907.771 550.051 910.117C547.297 912.361 545.92 915.268 545.92 918.838C545.92 922.408 547.093 925.162 549.439 927.1C551.785 928.936 555.916 930.721 561.832 932.455L566.422 933.832C572.236 935.566 576.673 938.116 579.733 941.482C582.793 944.848 584.323 948.979 584.323 953.875C584.323 956.731 583.762 959.434 582.64 961.984C581.518 964.432 579.886 966.574 577.744 968.41C575.602 970.246 572.899 971.674 569.635 972.694C566.473 973.714 562.801 974.224 558.619 974.224C554.029 974.224 550 973.816 546.532 973C543.064 972.286 540.004 971.317 537.352 970.093L539.494 963.82C542.146 965.146 544.9 966.166 547.756 966.88C550.612 967.492 553.978 967.798 557.854 967.798C563.668 967.798 568.156 966.676 571.318 964.432C574.48 962.188 576.061 958.975 576.061 954.793C576.061 951.529 574.888 948.724 572.542 946.378C570.298 943.93 566.269 941.788 560.455 939.952L555.559 938.422C543.625 934.648 537.658 928.375 537.658 919.603C537.658 916.747 538.219 914.146 539.341 911.8C540.565 909.352 542.197 907.312 544.237 905.68C546.379 903.946 548.878 902.62 551.734 901.702C554.692 900.682 557.956 900.172 561.526 900.172C564.79 900.172 568.156 900.427 571.624 900.937C575.092 901.447 578.254 902.416 581.11 903.844L579.121 910.117Z" fill="#777"/>
<path d="M0 370C0 70 173 0 370 0C567 0 740 70 740 370C740 670 567 740 370 740C173 740 0 670 0 370Z" fill="#FAFA00"/>
<path d="M346.787 183H395.467L544.473 557H487.483L446.521 453.111H292.765L252.397 557H196L346.787 183ZM307.606 409.775H430.492L405.559 345.067C398.831 328.049 392.696 311.624 387.156 295.794C381.615 279.963 376.074 263.737 370.533 247.114H369.346C363.805 263.737 358.067 279.765 352.13 295.2C346.194 310.635 339.861 327.257 333.133 345.067L307.606 409.775Z" fill="white"/>
</svg>
